<svg width="11" height="8" viewBox="0 0 11 8" fill="none" xmlns="http://www.w3.org/2000/svg">
<path d="M1.61198 0.666748H4.94531C5.12212 0.666748 5.29169 0.736986 5.41672 0.86201C5.54174 0.987034 5.61198 1.1566 5.61198 1.33341C5.61198 1.51023 5.54174 1.6798 5.41672 1.80482C5.29169 1.92984 5.12212 2.00008 4.94531 2.00008H1.61198C1.43517 2.00008 1.2656 1.92984 1.14057 1.80482C1.01555 1.6798 0.945313 1.51023 0.945312 1.33341C0.945312 1.1566 1.01555 0.987034 1.14057 0.86201C1.2656 0.736986 1.43517 0.666748 1.61198 0.666748ZM6.27865 6.00008H9.61198C9.78879 6.00008 9.95836 6.07032 10.0834 6.19534C10.2084 6.32037 10.2786 6.48994 10.2786 6.66675C10.2786 6.84356 10.2084 7.01313 10.0834 7.13815C9.95836 7.26318 9.78879 7.33341 9.61198 7.33341H6.27865C6.10183 7.33341 5.93227 7.26318 5.80724 7.13815C5.68222 7.01313 5.61198 6.84356 5.61198 6.66675C5.61198 6.48994 5.68222 6.32037 5.80724 6.19534C5.93227 6.07032 6.10183 6.00008 6.27865 6.00008ZM1.61198 3.33341H9.61198C9.78879 3.33341 9.95836 3.40365 10.0834 3.52868C10.2084 3.6537 10.2786 3.82327 10.2786 4.00008C10.2786 4.17689 10.2084 4.34646 10.0834 4.47149C9.95836 4.59651 9.78879 4.66675 9.61198 4.66675H1.61198C1.43517 4.66675 1.2656 4.59651 1.14057 4.47149C1.01555 4.34646 0.945313 4.17689 0.945312 4.00008C0.945312 3.82327 1.01555 3.6537 1.14057 3.52868C1.2656 3.40365 1.43517 3.33341 1.61198 3.33341Z" fill="white"/>
</svg>
