<svg width="14" height="14" viewBox="0 0 14 14" fill="none" xmlns="http://www.w3.org/2000/svg">
<path d="M11.1994 10.2252C11.3138 10.3397 11.3782 10.495 11.3782 10.6569C11.3782 10.8188 11.3138 10.974 11.1994 11.0885C11.0849 11.203 10.9296 11.2673 10.7677 11.2673C10.6058 11.2673 10.4506 11.203 10.3361 11.0885L7.11198 7.8634L3.88686 11.0875C3.77238 11.202 3.61712 11.2663 3.45522 11.2663C3.29332 11.2663 3.13806 11.202 3.02358 11.0875C2.9091 10.973 2.84479 10.8178 2.84479 10.6559C2.84479 10.494 2.9091 10.3387 3.02358 10.2242L6.2487 7.00012L3.02459 3.775C2.91012 3.66052 2.8458 3.50526 2.8458 3.34336C2.8458 3.18147 2.91012 3.0262 3.02459 2.91172C3.13907 2.79724 3.29434 2.73293 3.45624 2.73293C3.61813 2.73293 3.7734 2.79724 3.88788 2.91172L7.11198 6.13684L10.3371 2.91121C10.4516 2.79673 10.6068 2.73242 10.7687 2.73242C10.9306 2.73242 11.0859 2.79673 11.2004 2.91121C11.3149 3.02569 11.3792 3.18096 11.3792 3.34285C11.3792 3.50475 11.3149 3.66002 11.2004 3.77449L7.97526 7.00012L11.1994 10.2252Z" fill="white"/>
</svg>
